<svg version="1.1" xmlns="http://www.w3.org/2000/svg" viewBox="0 0 130 120.48076923076923"
    width="12" height="12">
    <!-- svg-source:excalidraw -->

    <defs>

    </defs>
    <rect x="0" y="0" width="12" height="12" fill="transparent"></rect>
    <g stroke-linecap="round" transform="translate(10 10) rotate(0 55 50.24038461538461)">
        <path
            d="M25.12 0 M25.12 0 C36.56 -2.11, 52.2 2.28, 84.88 0 M25.12 0 C41.48 0.23, 56.32 -1.63, 84.88 0 M84.88 0 C104.98 0.25, 108.75 10.98, 110 25.12 M84.88 0 C101.02 -3.19, 107.93 10.79, 110 25.12 M110 25.12 C112.38 35.72, 107.07 46.22, 110 75.36 M110 25.12 C110.06 35.2, 108.22 48.1, 110 75.36 M110 75.36 C106.3 95.79, 103.3 99.3, 84.88 100.48 M110 75.36 C108.69 93.5, 101.51 98.53, 84.88 100.48 M84.88 100.48 C69.15 98.96, 57.29 101.01, 25.12 100.48 M84.88 100.48 C65.69 99.72, 41.97 101.81, 25.12 100.48 M25.12 100.48 C4.89 97.87, -1.43 89.63, 0 75.36 M25.12 100.48 C5.9 100.36, 3.38 94.69, 0 75.36 M0 75.36 C3.59 54.74, -0.38 38.68, 0 25.12 M0 75.36 C-0.29 57.11, 2.67 41.81, 0 25.12 M0 25.12 C-1.8 7.12, 10.46 -0.08, 25.12 0 M0 25.12 C4.58 8.29, 6.19 4.21, 25.12 0"
            stroke="#000000" stroke-width="1" fill="none"></path>
    </g>
</svg>