<svg version="1.1" xmlns="http://www.w3.org/2000/svg" viewBox="0 0 130 120.48076923076923"
    width="130" height="120.48076923076923">
    <!-- svg-source:excalidraw -->

    <defs>

    </defs>
    <rect x="0" y="0" width="130" height="120.48076923076923" fill="transparent"></rect>
    <g stroke-linecap="round" transform="translate(10 10) rotate(0 55 50.24038461538461)">
        <path
            d="M6.03 6.57 C6.03 6.57, 6.03 6.57, 6.03 6.57 M6.03 6.57 C6.03 6.57, 6.03 6.57, 6.03 6.57 M0.52 19 C8.65 12.19, 8.81 4.55, 14.95 2.4 M0.52 19 C7.25 14.33, 10.41 5.83, 14.95 2.4 M3.54 21.63 C9.09 18.11, 11.72 9.43, 21.25 1.25 M3.54 21.63 C11.79 12.62, 17.42 5.72, 21.25 1.25 M3.28 28.02 C11.24 17.59, 16.24 11.87, 26.24 1.61 M3.28 28.02 C10.1 17.49, 20.81 9.15, 26.24 1.61 M3.67 33.67 C7.08 25.07, 13.87 16.71, 31.88 1.22 M3.67 33.67 C13.01 23.85, 20.54 15.87, 31.88 1.22 M3.41 40.07 C13.26 27.18, 23.51 18.51, 36.87 1.58 M3.41 40.07 C9.46 30.57, 19.08 22.33, 36.87 1.58 M3.15 46.46 C22.56 31.2, 35.26 11.67, 42.51 1.18 M3.15 46.46 C16.92 29.86, 29.66 15.98, 42.51 1.18 M3.54 52.11 C13.01 38.26, 28.2 21.66, 47.5 1.54 M3.54 52.11 C17.31 37.11, 30.64 22.24, 47.5 1.54 M3.28 58.5 C21.68 36.13, 42.48 10.82, 53.14 1.15 M3.28 58.5 C20.16 36.05, 40.77 16.44, 53.14 1.15 M3.68 64.15 C20.12 51.39, 29.83 32.26, 58.13 1.51 M3.68 64.15 C20.27 42.42, 38.27 23.54, 58.13 1.51 M3.42 70.55 C19.84 52.93, 34.06 36.03, 63.77 1.11 M3.42 70.55 C17.35 53.68, 32.71 38.49, 63.77 1.11 M3.15 76.94 C24.27 50.43, 45.34 28.94, 68.76 1.47 M3.15 76.94 C23.85 52.51, 44.89 31.12, 68.76 1.47 M2.89 83.34 C24.92 58.8, 43.63 35.65, 73.75 1.83 M2.89 83.34 C20.62 63.72, 35.82 46.72, 73.75 1.83 M4.6 87.47 C24.25 57.83, 52.92 32, 79.39 1.44 M4.6 87.47 C25.06 64.82, 46.23 43.94, 79.39 1.44 M6.31 91.61 C33.37 56.15, 68.3 19.73, 84.38 1.8 M6.31 91.61 C29.02 67.61, 52.34 39.63, 84.38 1.8 M8.01 95.74 C34.83 56.82, 73.31 24.91, 90.68 0.65 M8.01 95.74 C35.3 64.94, 64.11 31.8, 90.68 0.65 M11.69 97.61 C35.26 68.29, 58.63 45.57, 94.35 2.52 M11.69 97.61 C40.14 65.83, 66.74 31.86, 94.35 2.52 M15.36 99.48 C32.22 73.64, 55.47 56.03, 98.68 3.63 M15.36 99.48 C38.07 75.07, 59.68 50.96, 98.68 3.63 M19.69 100.6 C46.05 69.54, 73.49 39.79, 102.36 5.5 M19.69 100.6 C48.25 68.11, 78.72 32.52, 102.36 5.5 M25.34 100.2 C58.61 67.95, 83.25 28.74, 105.38 8.13 M25.34 100.2 C46.81 76.26, 68.15 49.92, 105.38 8.13 M30.32 100.56 C46.81 71.66, 69.98 48.06, 107.74 11.51 M30.32 100.56 C53.53 73.19, 75.84 46.24, 107.74 11.51 M35.31 100.92 C58.88 70.42, 84.29 44.6, 109.45 15.64 M35.31 100.92 C63.99 68.88, 92.78 36.18, 109.45 15.64 M40.95 100.53 C68.21 75.96, 91.1 40.73, 110.5 20.53 M40.95 100.53 C60 77.67, 80.46 53.22, 110.5 20.53 M45.94 100.89 C63.47 86.97, 81.18 65.99, 110.89 26.17 M45.94 100.89 C69.99 73.3, 93.04 46.37, 110.89 26.17 M51.58 100.49 C77.3 70.26, 96.2 46.63, 111.29 31.81 M51.58 100.49 C70.43 83.64, 85.73 62.31, 111.29 31.81 M56.57 100.85 C71.55 84.52, 79.76 76.15, 111.02 38.21 M56.57 100.85 C73.07 78.78, 93.99 59.38, 111.02 38.21 M62.21 100.46 C73.45 90.81, 79.53 75.71, 110.76 44.61 M62.21 100.46 C71.47 88.77, 82.83 75, 110.76 44.61 M67.2 100.82 C77.47 86.89, 89.06 76.1, 111.16 50.25 M67.2 100.82 C81.99 83.5, 96.53 65.09, 111.16 50.25 M72.19 101.18 C82.04 86.91, 93.45 77.78, 110.9 56.65 M72.19 101.18 C81.43 87.94, 90.8 76.67, 110.9 56.65 M77.83 100.78 C87.51 94.17, 97.54 83.42, 110.63 63.05 M77.83 100.78 C86.33 90.92, 90.45 84, 110.63 63.05 M82.82 101.14 C92.72 93.38, 99.51 78.01, 111.03 68.69 M82.82 101.14 C92.9 89.05, 105.34 76.99, 111.03 68.69 M87.15 102.26 C100.37 90.76, 104.04 81.4, 110.77 75.09 M87.15 102.26 C94.9 93.08, 100.7 86.37, 110.77 75.09 M92.79 101.86 C94.93 95, 100.37 95.3, 110.51 81.49 M92.79 101.86 C99.44 96.44, 105.17 88.43, 110.51 81.49"
            stroke="#000" stroke-width="0.5" fill="none"></path>
        <path
            d="M25.12 0 M25.12 0 C37.68 -3.27, 48.35 2.26, 84.88 0 M25.12 0 C46.8 -1.38, 68.56 2.09, 84.88 0 M84.88 0 C101.99 -2.09, 108.07 8.69, 110 25.12 M84.88 0 C104.2 -2.65, 111.21 5.61, 110 25.12 M110 25.12 C113.27 39.71, 108.15 56.25, 110 75.36 M110 25.12 C110.2 43.88, 110.92 59.39, 110 75.36 M110 75.36 C106.23 91.1, 102.64 100.26, 84.88 100.48 M110 75.36 C114.29 95.82, 105.76 96.66, 84.88 100.48 M84.88 100.48 C70.66 102.82, 49 97.94, 25.12 100.48 M84.88 100.48 C62.7 102.33, 43.48 100.05, 25.12 100.48 M25.12 100.48 C5.46 101.6, 2.13 94.68, 0 75.36 M25.12 100.48 C7.71 101.03, -4.23 90.77, 0 75.36 M0 75.36 C2.74 52.5, -2.86 35.99, 0 25.12 M0 75.36 C1.29 61.71, 2.2 49.83, 0 25.12 M0 25.12 C1.79 5.55, 5.77 0.79, 25.12 0 M0 25.12 C3.19 6.48, 11.32 3.94, 25.12 0"
            stroke="#000000" stroke-width="1" fill="none"></path>
    </g>
</svg>